<svg xmlns="http://www.w3.org/2000/svg" viewBox="0 0 332.41 363.19"><g id="Layer_1" data-name="Layer 1"><path d="M71,36.45c8.23-2.43,16.93,1.78,21.33,8.84,1.52,2.61-19,9.1-22,10.52C66.24,48.36,63.53,43.27,71,36.45Z" fill="#f3f6ec"/><path d="M62.64,71.71c-11.3-8-2.89-6.27,4.79-10,6.12,8,21.5,5.78,26-3v0c.51,0,.36-.89,1-.78C92.92,72.67,75,77.68,63.16,71.77h.06Z" fill="#5791a2"/><path d="M122.93,32.17c9.09-5.71-2.77-3.25-6.5-2.28l0-.85c63-15.44-105.86,60.4-99.23,43,.84-.68,2.89-3.07,3.85-1.82-.19.54-1,.94-.62,1.55,16.73,0,33.69-9.26,49.76-14.42C86,51.1,102.73,44.18,116.6,35.22A11.83,11.83,0,0,0,122.93,32.17Z" fill="#f3f6ec"/><path d="M63.16,71.77c11.85,5.91,29.77.89,31.26-13.72-.66-.11-.51.78-1,.78.16-1.41-1.19-.71-1.5.1-4.3,5.62-12.33,3.45-17.36.15,6.48-2.81,13-5.47,19.3-8.69,1-.46,1.13-.18,1.34.66C100.16,69.41,77.26,84,63.16,71.77Zm31.23-17.1c-.67.79-1.36,2.17-.44,2.56C94.87,57.12,94.2,55.64,94.39,54.67Z" fill="#f3f6ec"/><path d="M62.9,58.29c-1.41.53-9.14,4.78-8.77,1.94-1.55-8,2.37-17.62,10-21.18A19.35,19.35,0,0,0,62.9,58.29Z" fill="#5791a2"/><path d="M74.54,59.08c5,3.3,13.06,5.47,17.36-.15.3-.81,1.67-1.51,1.5-.1v0c-4.39,8.65-19.85,11-26,3Z" fill="#bad7d8"/><path d="M63.87,58.19C60.18,50.82,61.06,37.6,71,36.45c-4,3.64-6.06,8.3-3.78,13.46C70.94,56.6,72,55.89,63.87,58.19Z" fill="#bad7d8"/><path d="M116.41,34.54c-2.94,1.38-8.4,6.24-11.42,4.7,7.62-7.75-13.28,1.38-14.89.55-.27-.63.39-.66.73-.78C96.44,37,102.35,35,108,33.39c3.25-.21,6.52-.75,9.81-.24C117.62,33.91,116.76,34,116.41,34.54Z" fill="#f3f6ec"/><path d="M47,64.68c-2,.56-17.82,7-15.65,2.93,1.67-1.42,3.11-3.1,5.06-4.18.56-.31,1.16-.63,1.12-1.42,2.84-2.25,17.5-8.59,7.66-2.59l-.07,0C37.91,63.46,38.38,66.21,47,64,47,64.23,47,64.45,47,64.68Z" fill="#f3f6ec"/><path d="M21.07,70.26a.84.84,0,0,0-.79-.47C30.12,62.38,41.83,57.68,53,52.48c-.5,3.11-31.14,12.83-25.59,17.94-5.61,1-6.39,1.15-2-3C24,67.55,22.59,69.56,21.07,70.26Z" fill="#bad7d8"/><path d="M116.45,29l0,.85a251,251,0,0,0-25.67,8.32C81.47,39.9,114,28.85,116.45,29Z" fill="#bad7d8"/><path d="M37.52,62c-.12,2-8.27,5-6.15,7.17C21.87,71.6,35,62.49,37.52,62Z" fill="#bad7d8"/><path d="M117.76,33.15c-3.29-.51-6.56,0-9.81.24a32.72,32.72,0,0,1,10.11-2.62c.42.56,1.23,2.49-.3,2.16l0,.24Z" fill="#5791a2"/><path d="M105,39.24c.37.52.91.47,1.45.46-2.13,1.53-8.73,5.38-11.19,5A80.71,80.71,0,0,0,105,39.24Z" fill="#bad7d8"/><path d="M47,64.68c0-.23,0-.45,0-.68,2.12-.53,4.14-1.71,6.34-1.78A18.71,18.71,0,0,1,47,64.68Z" fill="#bad7d8"/><path d="M49,57.25a1.06,1.06,0,0,0-.47-.81c1.28-1,2.89-1.31,4.35-2C52.21,56.28,50.42,56.55,49,57.25Z" fill="#bad7d8"/><path d="M43.71,60.33a.59.59,0,0,1,.74-.5A1,1,0,0,1,43.71,60.33Z" fill="#bad7d8"/><path d="M62.64,71.71l.58.07C63,72.11,62.83,71.75,62.64,71.71Z" fill="#f3f6ec"/><path d="M45.08,59.47l0-.08c.08,0,.07,0,0,.12Z" fill="#bad7d8"/><path d="M93.42,59.17c-.07-.19-.19-.24,0-.38C93.41,58.92,93.42,59,93.42,59.17Z" fill="#f3f6ec"/><path d="M94.39,54.67c-.19,1,.48,2.45-.44,2.56C93,56.84,93.72,55.46,94.39,54.67Z" fill="#bad7d8"/><path d="M332.33,68.84a.83.83,0,0,1-.05-1c-3.69-78.95-113.83-94-137.58-18.22-17.7,49,31.48,101,80.95,89.35C308.74,133.31,334.05,102.51,332.33,68.84Z" fill="#f3f6ec"/><path d="M204.73,35.47c-5.21,12.84,3.55,15.49,2.82,25.37-3.69,3.84-7.76.12-6.32-4.35-1.14,71.19,110.33,97,127.82,15C325.55,184.46,147.74,130.88,204.73,35.47Z" fill="#5791a2"/><path d="M329.05,71.47c-18.37,82.73-128.86,55.65-127.82-15-1.43,4.48,2.63,8.19,6.32,4.35,4,12.46,13.92,13.4,10.57,20.87-3.44-20.48-19.28,10-.54,1.5,17.45,12.94,38,31,62.8,25.41-.65,3.87,3,7.09,6.19,4.06,2.4-1.47,1.54-3.49.65-5.44,4.75-.46,11.36-3.23,12.58-7.91.33-4,2.25-6.41,6.22-7.26,10.48-4.72,18.85-27.64,20.44-38.72A44.23,44.23,0,0,1,329.05,71.47ZM311.7,97.1c-.52-12.18-17.36,3.35-6.35,5.6C308.84,102.75,311.63,100.3,311.7,97.1ZM219,90.2c-.5-1.25-.61-3.19-2.8-2.89C208.4,87.63,218.28,97.77,219,90.2Z" fill="#bad7d8"/><path d="M264.39,77c.26-10.81,17.63-10.32,17.81.71C281.85,88.92,264.31,90.14,264.39,77Z" fill="#5791a2"/><path d="M248.49,99.18c-7.12.54-14.28-10.57-6.18-14.4C252.68,80.78,262.46,97.91,248.49,99.18Z" fill="#bad7d8"/><path d="M313.64,33.55c-.54,11.33-14.84,8.33-14.83-1.75C298.69,21,313.81,24.6,313.64,33.55Z" fill="#5791a2"/><path d="M270,35.49c-9.71.13-9.92-14.15-.29-14.27C279.17,21.34,279.59,35.19,270,35.49Z" fill="#5791a2"/><path d="M284.55,62.3c-8.2-.11-5.61-11.82,1.42-11.35C294.05,51.74,292.06,62.38,284.55,62.3Z" fill="#bad7d8"/><path d="M247,35c6.73,0,4,10.37-1.47,9.85C237.9,44.53,240.53,34.78,247,35Zm-5.11,7.39c.18-.12.18-.19,0-.32C241.68,42.15,241.67,42.22,241.84,42.35Z" fill="#5791a2"/><path d="M216.93,83.61c-6.23,4.4-11.3-3.13-6.84-7.35C215.3,71.53,220.94,79.85,216.93,83.61Z" fill="#5791a2"/><path d="M221.8,22.9c-7-.78.74-8.49,4.36-8.27C233.23,15.28,225.68,23.43,221.8,22.9Z" fill="#5791a2"/><path d="M247,67.31c-5.46,0-4.8-8.16.47-7.93C252.79,59.22,252.76,67.75,247,67.31Z" fill="#bad7d8"/><path d="M228.62,56.93c-.31-5,7.71-5.4,7.9-.21C236.29,61.46,228.82,62.49,228.62,56.93Z" fill="#bad7d8"/><path d="M287.22,107.24c.89,2,1.75,4-.65,5.44C278.9,118.05,278.27,102.48,287.22,107.24Z" fill="#5791a2"/><path d="M254,15.13c.13,2.55-4.21,2.57-4,0C249.89,12.63,254.05,12.56,254,15.13Z" fill="#5791a2"/><path d="M214.58,63.16c-.06,1.4-2.49,1.66-2.33.1C212.28,62,214.54,61.87,214.58,63.16Z" fill="#bad7d8"/><path d="M206.11,47.21c-.72.09-.79-.4-.81-.9C205.18,43.67,208.53,46.19,206.11,47.21Z" fill="#5791a2"/><path d="M204.76,35.49c.09-.22,0-.79.33-.53C205,35.14,204.74,35.33,204.76,35.49Z" fill="#5791a2"/><path d="M311.7,97.1c-.07,3.2-2.86,5.65-6.35,5.6C294.34,100.45,311.19,84.92,311.7,97.1Z" fill="#5791a2"/><path d="M219,90.2c-.7,7.57-10.58-2.57-2.8-2.89C218.37,87,218.48,89,219,90.2Z" fill="#5791a2"/><path d="M167.16,201.78c1.87-3.94,2.25-8.66,4.3-12.72a17.05,17.05,0,0,0-5.47,9.05C167.38,199,165.94,200.82,167.16,201.78Z" fill="#5791a2"/><path d="M91.26,181.74c-.22,1.27-1,2.7.27,3.9.39-.73,0-1.93,1.35-2C92.93,182.74,92,179.87,91.26,181.74Z" fill="#5791a2"/><path d="M95.29,189.37c.64.07.59-.71.69-1.2a2.62,2.62,0,0,0-1.42-.42C94.35,188.5,94.4,189.28,95.29,189.37Z" fill="#5791a2"/><path d="M93.24,184.56c-.18.46-.07.77.44.88C93.77,185,93.75,184.68,93.24,184.56Z" fill="#5791a2"/><path d="M93.11,184.33c.26-.26.11-.4-.16-.5C92.8,184.06,92.84,184.23,93.11,184.33Z" fill="#5791a2"/><path d="M53.48,212.44c-.36-1.55-2.07-1.92-2.5-3.38-1.34-.52-2.32-1.77-4.13-2.12.67,1.4,1.77,1.91,1.81,3.31l.09.05c1.22.47,1.23,2.1,2.47,2.55A7.63,7.63,0,0,0,53,215.59C54,214.67,51.73,213.24,53.48,212.44Z" fill="#5791a2"/><path d="M153.79,250.9c.82.14,2.3,1.12,2.42-.49,1.64-5.67-4.79-4.75-8.3-7.1-1.25-.57-1.32,0-1.93,1-1.88,8.76-8.09,2.35-14,2-2.53,2.22-18.24-4.69-22.68-5.36-4.08-1.29-2.6-3.44-8.72-4.3-5.88-1.67-5.89-1.64-5-7.75.1-.7.53-1.46-.74-1.53a39.87,39.87,0,0,1-7.49-1.4c-2.08-.53-2.54,1.3-3.31,2.57-.56.92-.16,1.49.79,1.86,11,3.91,16.57,14.77,26.59,20.05C125.3,257.79,139.42,248.67,153.79,250.9Zm-45.53-3.81a80.66,80.66,0,0,0,18.28,5C122.87,253.52,112.36,250.82,108.26,247.09Z" fill="#5791a2"/><path d="M74.13,328c-6.35-.62-13.85-1.05-18.26-6.14,9.89,4.53,22.2,5,24.91.95-5.75,1.46-11.26.39-17.48-1.3,12.11-.41,13.06-.64,15.19-3.9C71.35,319.85,65,318.59,59,315c.08-.26.15-.53.22-.79,7,3.35,13.92,5,20.57-.74.46-.41,1.7-.58,1-1.52-.55-.75-1.36,0-1.91.35-3,2.19-6.19.24-9.44.07.06-.27.13-.55.19-.82-5.61-.57-11.65-4.64-14.79-9.43-.24-.5-.6-.9-1.26-.58-.86,7.16-3.39,20.51,4.49,24.3A22.86,22.86,0,0,0,74.13,328Zm-7.56-16.17a5.09,5.09,0,0,1-1.2-.67A5.09,5.09,0,0,0,66.57,311.83Zm-10.25.67a4.42,4.42,0,0,0-1.18-.18A4.42,4.42,0,0,1,56.32,312.5Z" fill="#5791a2"/><path d="M88.83,289.29v-.05l-.15,0Z" fill="#5791a2"/><path d="M100.46,275c-3.51-1.61-5.25-5-7.65-7.71-6.7-5.83-14.32-9.36-23.35-9.39-2-.36-4.61,1-4.61,3.31,10.27-.34,20.3,1.85,27,10.25,1.46,2.45,6.15,5.22,2.92,8.19-2,1.18.72,4.21-1.07,5.44-.72.45-1.33,0-1.88-.55-1.3-1.37-1.61-.42-1.63.79.25,1.65-.63,2.64-1.36,3.95,1.32.37,1.27,2.24,2.63,2.62,1.17-1.38.43-2.95.48-4.7,1.72,1.29,2.24.14,2.78-1,1.49-3.13,2.76-6.39,5.33-8.89C100.68,276.69,101.36,275.91,100.46,275Z" fill="#5791a2"/><path d="M124.76,223.41c2,.6,4,1.18,6,1.79,4.42,1.34,4.36,1.33,5.5-3.11.43-1.7.29-2.66-1.65-3.19-5.25-1.44-10.45-3-15.65-4.63-2.7-1.15-2.65,2.14-3.65,3.78-1.81,3.68,7.3,3.7,9.54,5.09Z" fill="#5791a2"/><path d="M149.88,280.61c-10.27-5.9-22.76-5.27-32.82.33-1.07,7,5.73-.44,9,.46,9.7-4.17,21.74-.89,28.46,7.28C156.42,284.77,153.13,282.06,149.88,280.61Z" fill="#5791a2"/><path d="M204.61,212.72c.35-6.83-17.58,4.35-20.81,5.46a83.42,83.42,0,0,0-8.55,8.68c2.23,3.83,4.87-3.64,7.62-4,.63-1.14,1.92-1.51,2.8-2.37.63-.61,1.11-.31,1.39.43A68.12,68.12,0,0,1,204.61,212.72Z" fill="#5791a2"/><path d="M123.63,164.47c9.27,9.25,24,13.28,36.57,9.71l.54-2.27c-13.16,3.22-26.8-.94-36.79-9.84C123.21,162.78,124.87,163.82,123.63,164.47Z" fill="#5791a2"/><path d="M126.38,179c-4.18-1-8.91-4.11-12.91-1.09,14,1.55,27.18,7.47,40.73,11.09,2.7.82,5,2.25,6,5.07,1.34-3.8-5-7.11-8.23-8,.37-.85,1.55-.46,1.63-1.41-9.36-.17-18.08-2.92-26.58-6.55C127.37,178.73,127.84,179.45,126.38,179Zm24.18,6.45c.2.77-.86.47-1.33,0A1.2,1.2,0,0,1,150.56,185.42Z" fill="#5791a2"/><path d="M108.39,261.89l0,.05,0,0Z" fill="#5791a2"/><path d="M107.91,259.1c-5-10.23-12.28-20.06-22.74-25.22-3.71-1.74-3.8-1.62-5.65,2.2,6.44.71,11.82,4.58,16.34,9C97.3,247,97.28,250,100,251c.58,0,1.07.17,1.12.86,3.3,2.59,4.78,6.77,7.25,10.08C108.91,260.85,108.27,260,107.91,259.1Z" fill="#5791a2"/><path d="M101.14,251.84v0l0,0Z" fill="#5791a2"/><path d="M99.65,146.32c2.35.32,6.83,3.1,8.61,1.12a1.25,1.25,0,0,0-1-1.65c-1.24-.84-6.62-1.25-6.14-2.84,2-1.33,6.94,3.28,7.3-2-1.85-1-4.13-1-5.8-2.63,2.07-.45,3.92.65,5.87,1,.33-1.07.67-2.14,1-3.21-1.76-.91-3.91-.91-5.84-2.32,2.52-1,4.13,1.37,6.18.79l.86-3.2c-1.94,0-5.86-3.17-6.57-.43Q101.89,138.65,99.65,146.32Z" fill="#5791a2"/><path d="M42.36,224.53c-2.21-2-16.8-14.74-17.39-8,1.88-.08,3.06,1.47,4.51,2.31a1.77,1.77,0,0,1,1.41.94l.16,0c2.75,1.06,11,4,7.59,7.83-3.56,4-6.4,8.57-9.44,13,4-.18,6.85-6.35,9-9.37a5.9,5.9,0,0,1,6-4.15C44,225.94,43.12,225.29,42.36,224.53Z" fill="#5791a2"/><path d="M78.44,188.76c-2.51-7-7.55-13.58-12.31-19.46-.9.86-2.65.8-2.75,2.52,5.95,4.28,8.37,11.27,12,17l-.07,0C78,190.6,77.48,201.58,81,198.6A13.85,13.85,0,0,1,78.44,188.76Z" fill="#5791a2"/><path d="M55.65,325c2.62,11.76,25.46,11.68,28.37,1.31C74.37,333.68,65.07,332.93,55.65,325Z" fill="#5791a2"/><path d="M201.37,258.18a102.62,102.62,0,0,1,11.22.62c.61-.52.24-1.11.15-1.68-6.17-2.81-12.78-2.24-19.26-1.25-1.76.75-4.21.45-4.66,3.13C193,259.06,197.11,257,201.37,258.18Z" fill="#5791a2"/><path d="M43.73,212.46c3.15,0,4.22,4.59,7.34,3.63-1.63-4.53-15.25-15.34-19.52-10.92A61.88,61.88,0,0,1,43.73,212.46Z" fill="#5791a2"/><path d="M197.4,259.26c-3.92.42-10.78,2.81-9.51,7.69.56,2.25,8-1.2,10.1-1.16C198,263.6,198.36,261.37,197.4,259.26Z" fill="#5791a2"/><path d="M44.17,213.67l-2.33.78a.61.61,0,0,1-.21.37.2.2,0,0,1-.1.24,6,6,0,0,1-.74,3.7c1.76,1.8,3.49,3.63,5.3,5.38.66.64.84,2.25,2,1.8C52.77,222.46,47.27,216.38,44.17,213.67Z" fill="#5791a2"/><path d="M152.86,230.49c1.5,2.15,12.8,9.31,13.58,4.66-3.25-.29-5.12-2.92-7.63-4.46-1.34-.62-7.88-4-5.16-5.58a5.22,5.22,0,0,0-2.08-2.82C151.27,225.37,150.82,228.31,152.86,230.49Z" fill="#5791a2"/><path d="M183.77,166.92c1.81.5,3.61,1,5.42,1.56.82-2.83,1.65-5.65,2.47-8.48a33.27,33.27,0,0,1-6.32-1.36c-1.06,2.07-.64,4.66-2.38,6.54C182.25,165.94,182.78,166.64,183.77,166.92Z" fill="#5791a2"/><path d="M93.06,223.73c3.45.48,10.68-.09,12.35-3.38,0-.89-1.29-.73-2-1.11-.94-.52-1.94-.94-2.91-1.41-.84,2.92-3.6,2.47-5.49,2.49C92.24,220,88.77,223.57,93.06,223.73Z" fill="#5791a2"/><path d="M86.52,213.68c4.68,1,12.86,2.91,14.77-3.14-5.83,1.61-11.68.83-17.52.11C83.52,212.71,85,213.31,86.52,213.68Z" fill="#5791a2"/><path d="M77.82,180c.58-1.68,2.13-1.56,2.8-2.55L71.68,166a2.38,2.38,0,0,0-2.33,1.33A78.81,78.81,0,0,1,77.82,180Z" fill="#5791a2"/><path d="M152.55,253.92c-4.8-.11-10.09-.87-14.41,1.73,6.17.18,12.28-.21,17.94,3.33C157,254.68,156.7,254.18,152.55,253.92Z" fill="#5791a2"/><path d="M102.13,264c-3.2,2.06-5.1-7.57-6.75-3.77a.79.79,0,0,1,.13.4c1.29,1.14,2.43,2.34,1.4,4.25.89,3.86,5.37,3.95,7,7C106.12,269.57,103.38,266.14,102.13,264Z" fill="#5791a2"/><path d="M64,202.45l-.36-.65c-1.56,0-.43-1.34-1.13-2.13-.41,0-.81.2-.75.57a1.7,1.7,0,0,1-1.13,2.11c-1.2.43-1.4-.82-2-1.41a10.88,10.88,0,0,0-2.94-2.28c-.27,2.13,2.38,3.11,1.62,5.22h-.07c1,.39.53.89.11,1.39a7.76,7.76,0,0,0,2.18,3.26c1,2,2.58.87,2.71-1,.22-1-.89-2.27.48-3.1l.2.12-.16-.15h0l0,0C63.25,203.83,62.62,202.52,64,202.45Z" fill="#5791a2"/><path d="M198.16,271.09c4.87-.19,9.45,1.46,14.37.82,2.69-5-13.83-3-16.3-2.14C196,271.46,197.23,271.09,198.16,271.09Z" fill="#5791a2"/><path d="M188.73,211.33l.9.2c3.77-2.77,8.29-3.65,12.61-5.06-.32-.68-.64-1.36-1-2-4.91.58-9.3,2.7-13.72,4.7C187.37,209.82,188.91,210.28,188.73,211.33Z" fill="#5791a2"/><path d="M135.27,244.16c3.44.27,9,5,8.66-1.36-1.56,1.4-8.27-2.31-10.64-2.72C131.87,242.45,132.65,243.67,135.27,244.16Z" fill="#5791a2"/><path d="M150.48,239.82c-1.42-4.67-.65-5.87-5.74-8.49-7.47-2.88,2.78,9,5.52,9C150.33,240.17,150.41,240,150.48,239.82Z" fill="#5791a2"/><path d="M99.41,233.63c2.81,0,8.62,4.51,8.87-.42-3.57-.62-6.76-2.58-10.38-3C96.73,232.07,97.25,233.14,99.41,233.63Z" fill="#5791a2"/><path d="M111.41,223.17c-.86,0-1.41-.18-1.37-1.16l-7.47,3.44c8.33,4.86,3.81-.92,10.49,0C113.39,224.08,113,223.14,111.41,223.17Z" fill="#5791a2"/><path d="M76.08,193c-1.86.27-1.37,3.23-3.56,3.12.13,1.36.53,7.31,2.69,5.66C79.17,200.44,77.26,195.77,76.08,193Z" fill="#5791a2"/><path d="M111.75,130.15c1.84-4.88,1.52-4-2.5-5.12-.94-.28-1.9-.51-2.86-.76C103.37,128.78,108.25,129.45,111.75,130.15Z" fill="#5791a2"/><path d="M179.27,212.32c-1.55.58-2.68,1-3.63,0-1.71,1.68-4.49,5.07-3.13,7.38.72.43,1.15-.26,1.53-.73.8-1,1.56-2,2.34-3,.13-.39.27-.88.8-.59.58.5-.41,1.39-.53,2,.61,0,1.33.33,1.68-.51C179.87,215.66,178.05,214,179.27,212.32Z" fill="#5791a2"/><path d="M191.94,159.06c.35-1.29.69-2.59,1-3.89L186.72,154l-1,3.24Z" fill="#5791a2"/><path d="M182.09,170.82c2,.62,4,1.18,6,1.76.22-.87.45-1.74.68-2.61-2-.09-7.3-3.45-8.16-1C180.28,170.11,181.21,170.54,182.09,170.82Z" fill="#5791a2"/><path d="M192.19,254.7l1.52.09.11-.06a1.82,1.82,0,0,1,2.09-1.65c.3-.45,1.06.13,1.33-.68-2.11-.84-6.56.49-3.69-2.91-1.14-.15-7.35,2.78-6,4.18C188.69,255.84,192.7,249.67,192.19,254.7Z" fill="#5791a2"/><path d="M128.33,243.17c2.87,1.07,2.81-2,3.35-4-1.24-.94-2.78-.81-4.17-1.21C126.62,239.85,125.1,243,128.33,243.17Z" fill="#5791a2"/><path d="M86.47,194.86c2.45-.43,1.61-5.14,1.22-7-.4,0-1.11.32-1.08-.24.13-2.53-1.3-.74-2.06-.81C85.41,188.94,84.93,193.6,86.47,194.86Z" fill="#5791a2"/><path d="M119.88,269.35h0S119.89,269.35,119.88,269.35Z" fill="#5791a2"/><path d="M121.4,269.2l-1.49.15c-1.22,2.35-4.33,2.3-3.3,6.31C119.65,274.67,122.89,272.89,121.4,269.2Z" fill="#5791a2"/><path d="M101.56,203.39c.46-.39.92-.9,1.47-.12l.78-2.58c-3.6.89,2-10.93,2-13l-.69-.14a38.74,38.74,0,0,1-4.35,13.27C101.33,201.6,97.68,203.66,101.56,203.39Z" fill="#5791a2"/><path d="M111.94,143.15c1.79.58,3.1-5.48,3.24-6.94-2.55-.67-1.67,2.73-3.61,2.81C110.88,140.15,110.2,142.73,111.94,143.15Z" fill="#5791a2"/><path d="M171.55,209c.74-.72,1.6-1.38,2.37-2.09-1.33-2.68,1.33-4.74,1.38-7.87-.74,1.68-1.88,2-2.62,2.76C173.69,204.17,168.92,208.37,171.55,209Z" fill="#5791a2"/><path d="M123,238.68c-1.42.2.16-2.7.07-3.58-.77,0-1.63.38-2.2-.49-.84,1.76-.77,3.85-1.93,5.36C122.57,241.53,122.57,241.53,123,238.68Z" fill="#5791a2"/><path d="M104.75,259.05c-3,2.27,0,5.08,1.16,7.5C109,267.06,105.81,260.1,104.75,259.05Z" fill="#5791a2"/><path d="M180.9,229.36c-1,.35-1.52-.13-2.14-.63-2.09,1.59-.67,3.15.35,4.28,1.33,1.48,1.8-.59,2.62-1.09a5.42,5.42,0,0,0,1.13-1.43A1.4,1.4,0,0,0,180.9,229.36Z" fill="#5791a2"/><path d="M103.2,215.06c1.6.82,9.67,5,9.81,1.92l-10-2.67C103.09,214.57,103.05,215,103.2,215.06Z" fill="#5791a2"/><path d="M195.42,286.05l-1.28.25h0l1.28-.25c-.39-1.72.65-17.21-2.9-13.45,1.46,1.34,0,3.36.79,4.91-.15.44-.38.9.2,1.22a3.62,3.62,0,0,0,.13,3.44c-.14.44-.31.89.2,1.22a3.25,3.25,0,0,0,.28,2.92h0c-.1,3.46,2.46,7.59,6.31,6A6.9,6.9,0,0,1,195.42,286.05Zm-1.81-9.33,0-.1Zm0-.88a.29.29,0,0,0,0-.1A.29.29,0,0,1,193.64,275.84Zm0,.59a.43.43,0,0,0,0-.11A.43.43,0,0,1,193.67,276.43Zm0-.3v0Zm-.19-.59-.05-.09Zm.05,1.38,0,.06Zm-.22.59a1,1,0,0,1,.2,1.21A1,1,0,0,0,193.33,277.51Zm.2,1.22a3,3,0,0,1,.3,3A3,3,0,0,0,193.53,278.73Zm.28,3a4.14,4.14,0,0,1-.15.41A4.14,4.14,0,0,0,193.81,281.74Zm-.15.43a1,1,0,0,1,.2,1.21A1,1,0,0,0,193.66,282.17Zm.2,1.22a2.87,2.87,0,0,1,.28,2.91A2.87,2.87,0,0,0,193.86,283.39Z" fill="#5791a2"/><path d="M188.22,241.72c-1.06.65-4.61,4.63-1.51,4.42.51-1.25,1.48-1.43,2.65-1.19C189.72,243.62,190.59,242.11,188.22,241.72Z" fill="#5791a2"/><path d="M189.34,245l0,0h0Z" fill="#5791a2"/><path d="M136.16,233.79c.17,3.92,7.47,4.91,3.35.33C138.29,235,137.42,232.5,136.16,233.79Z" fill="#5791a2"/><path d="M118.55,264.67c2.22-1.13,4.59-2,6.6-3.47l-.45-.79C122.1,261,120.27,262.71,118.55,264.67Z" fill="#5791a2"/><path d="M119.88,269.35h0l0,0Z" fill="#5791a2"/><path d="M121.62,267.6c-.75-.31-1.47-.64-1.4-1.64-1,.07-4.31,2.44-3.31,3.51.76,1.15,2-1.17,3-.15C119.67,268,121.34,268.47,121.62,267.6Z" fill="#5791a2"/><path d="M112.33,209.13c-.53-1-2.53-.22-2.37-2-1.37-.48-2.32-2.18-4.12-1.39C106.6,207.78,108.6,208.83,112.33,209.13Z" fill="#5791a2"/><path d="M41,233.57c.3.73.25,2.26,1.84,1.36-.47-1.89-.93-3.77-1.4-5.65A4,4,0,0,0,41,233.57Z" fill="#5791a2"/><path d="M201.3,246.73c-.1-.31-.21-.62-.31-.93a12.36,12.36,0,0,0-5,1.36l.42,1.09C198.16,248.17,199.68,247.28,201.3,246.73Z" fill="#5791a2"/><path d="M69.54,199.59c-1.88.23-.43,2.45-1.79,3,0,.8.42,1.48,1.21,1.46C70.57,203.75,70,200.72,69.54,199.59Z" fill="#5791a2"/><path d="M118.11,225.71c-1.44.27-2.86-2.58-4.16,0a12.52,12.52,0,0,0,4.33,1.37C118.3,226.59,119.12,225.52,118.11,225.71Z" fill="#5791a2"/><path d="M65.57,203l-1.34-.22C64.8,209.2,68.45,205.77,65.57,203Z" fill="#5791a2"/><path d="M173.31,212.14a2.81,2.81,0,0,0-1.19-1.6C171.39,211.93,170,213,170,215,171.56,214.4,172.2,213,173.31,212.14Z" fill="#5791a2"/><path d="M111.53,316.94l.71-.41c-.74-1.46-2.19-2.19-3.35-3.25A5.23,5.23,0,0,0,111.53,316.94Z" fill="#5791a2"/><path d="M103,214.19c1.52-1,2.86.66,4.44.29-1.58-.42-2.33-3.1-4.5-1.45A1.08,1.08,0,0,0,103,214.19Z" fill="#5791a2"/><path d="M87.44,179.26c.39,1.17-.16,2.36.42,3.55l.82-.31c0-1.52.19-3.07-1-4.31-.08-.32.42-.68,0-1l-.23.69a1.16,1.16,0,0,0,.26.28C87.59,178.54,87.52,178.9,87.44,179.26Z" fill="#5791a2"/><path d="M129.83,230.51c-1-1.85-2.51-2.22-4.38-1.41A9.72,9.72,0,0,0,129.83,230.51Z" fill="#5791a2"/><path d="M86.26,299.19c.66-.81,1.47-1.4.78-2.53l-2.1-.46A7.58,7.58,0,0,0,86.26,299.19Z" fill="#5791a2"/><path d="M113.61,215.07c1.24-3.13-1.57-1.68-2.64-2.22C111.81,213.73,112.38,214.77,113.61,215.07Z" fill="#5791a2"/><path d="M101.68,209.82a1.76,1.76,0,0,0,.59-2.64l-1.77,2.09Z" fill="#5791a2"/><path d="M184.12,241.45c.83.87,1.52-.11,1.95-.93l-.89-.84C184.38,240,183.18,240.46,184.12,241.45Z" fill="#5791a2"/><path d="M91.55,192.7c.71.08,1.12-.44.6-1.21l-1-.21C90.89,191.88,90.71,192.61,91.55,192.7Z" fill="#5791a2"/><path d="M102.73,187.91a3.12,3.12,0,0,0,.73-2.78C103.49,186.13,101.37,186.57,102.73,187.91Z" fill="#5791a2"/><path d="M46.32,230.91a1.51,1.51,0,0,0,.09,1.69A1.48,1.48,0,0,0,46.32,230.91Z" fill="#5791a2"/><path d="M106.93,203.85c-.28.31-.86.35-.86.92a1.43,1.43,0,0,0,1.46-.17C107.54,204.18,107.42,203.87,106.93,203.85Z" fill="#5791a2"/><path d="M158,178.53c.33.22.67.5,1,0C158.67,178.08,158.34,178.22,158,178.53Z" fill="#5791a2"/><path d="M155.61,184.29a1.77,1.77,0,0,0-1.52.17A1,1,0,0,0,155.61,184.29Z" fill="#5791a2"/><path d="M75.77,327.82l-.28-.15C75.48,327.88,75.57,327.8,75.77,327.82Z" fill="#5791a2"/><path d="M53.7,299.89c0,.38-.07.76-.11,1.14A.82.82,0,0,0,53.7,299.89Z" fill="#5791a2"/><path d="M82.24,322.5s-.09-.15-.14-.22c-.17.2-.52.32-.2.57A2.81,2.81,0,0,0,82.24,322.5Z" fill="#5791a2"/><path d="M123.81,173.3c7.19,5.12,23.23,11.31,31.66,7.49l0-.1,0,.1c3.79.21,8.39-1.68,10.38-4.34l-6.17,1.94c-.13.34,1.83.46.11,1-1.46.43-2.92.83-4.38,1.25h0c-10.56.39-20.61-1.38-29.31-7.87-1.3-.9-1.23-1-.34-1.64a63.31,63.31,0,0,1-9.12-9.18C117.24,166.66,120.24,170.6,123.81,173.3Z" fill="#5791a2"/><path d="M117.06,209.62l.62.2C117.58,209.42,117.38,209.34,117.06,209.62Z" fill="#5791a2"/><path d="M98.33,206.07l-.84-.09C97.71,206.49,98,206.46,98.33,206.07Z" fill="#5791a2"/><path d="M194.22,249.13c-.35-.13-.56,0-.64.35C193.93,249.62,194.14,249.5,194.22,249.13Z" fill="#5791a2"/><path d="M108.37,261.94l.16.1-.12-.12Z" fill="#5791a2"/><path d="M121.31,227.84l.71.22C121.9,227.61,121.66,227.53,121.31,227.84Z" fill="#5791a2"/><path d="M195,248.85c-.32-.14-.58-.11-.72.25A.5.5,0,0,0,195,248.85Z" fill="#5791a2"/><path d="M111.72,222.18a.4.4,0,0,0-.65-.19A.41.41,0,0,0,111.72,222.18Z" fill="#5791a2"/><path d="M187.31,175.86c-.3.07-.2.35-.22.58C187.16,176.25,187.24,176.06,187.31,175.86Z" fill="#5791a2"/><path d="M45.88,229.41a.46.46,0,0,0,.24.73A.51.51,0,0,0,45.88,229.41Z" fill="#5791a2"/><path d="M95.76,173c.6,1.81-.28,3.64.26,5.43l.91-.81C97,176,97,174.35,95.76,173Z" fill="#5791a2"/><path d="M181.94,205.27h0c1.41-1.67-2.87,1-3,1.75l.39.74A7.21,7.21,0,0,0,181.94,205.27Z" fill="#5791a2"/><polygon points="183.05 203.97 182.9 203.99 182.99 204.12 183.05 203.97" fill="#5791a2"/><path d="M51.17,205a12.28,12.28,0,0,0,2.74,4l.89-.93c-.29-1.71-1.52-2.65-2.84-3.53-.22-1-1-1.36-1.87-1.58-.14-.43-.44-.26-.71-.17l.68.18C49.91,203.9,50.54,204.45,51.17,205Z" fill="#5791a2"/><path d="M102.54,261a.46.46,0,0,0-.55-.46C102,260.88,102.2,261.05,102.54,261Z" fill="#5791a2"/><path d="M123.3,310c1,1.06,2.15.6,3.14.84,3.09-.49,5.72,1.43,8.73,1.55C131.2,311.15,127.64,308.41,123.3,310Z" fill="#5791a2"/><path d="M127.22,265.83c1.7.32,3.21-.71,4.64-1.49-1-.37-2,.18-2.89.05-1.24-.16-1.85.1-1.77,1.4-2.56-1.74-5.21.51-5.17,3.09A7.75,7.75,0,0,0,127.22,265.83Z" fill="#5791a2"/><path d="M84.22,186.16c.15-.7-1.2-.93-.84-.14Z" fill="#5791a2"/><path d="M147.79,204.67c2.6-5.33-3.62-4.54-6.85-6.13-2.27-.89-3.43-.19-4.36,2-2.4,5.69-2.13,6.46,3.66,8.19C146.19,210.54,146.19,210.54,147.79,204.67Z" fill="#5791a2"/><path d="M119.7,201.36a.19.19,0,0,0,.16-.25c-4.43-1.7-4.43-1.7-5.5,2.92C118.73,205.55,116.51,199.78,119.7,201.36Z" fill="#5791a2"/><path d="M124.15,193.63a7.6,7.6,0,0,1-5.24-1.56l-1.35.86c2.25,2.19,5.07,2.27,7.94,2.18C125.78,193.94,124.88,193.86,124.15,193.63Z" fill="#5791a2"/><path d="M87.67,178.16v0s0,0,0,0Z" fill="#f3f6ec"/><path d="M87.47,180.94c-.89-.55-1.07-1.1,0-1.68.08-.36.15-.72.23-1.08-1.76-1-1.31-2.52-.39-3.42.55-.64,1.66,0,2.08,1,1,1.91,3.93,1.56,4.13,4.21.16,1.41,1,1.55,2.08.6a23.37,23.37,0,0,0,.19-7.56c1.94,2.54.92,5.77,1.7,8.69,2.93-1.77,2.75-4.77,3-7.68,1,2.16.22,4.26-.07,6.51,1.2.1,1.11-1.59,2.16-1.35.61-2.42,1.93-4.44,2-6.85-.33-1,.6-2.07.67-3.14,1.81,11.23-4.29,21.6-6.39,32.38.65-.2,1.13-.88,1.93-.69,4-6.44,3.75-14.21,6.45-21.11,3-8.29,2.22-17,3-25.56-12.45-.93-24.8,3.18-35.48,9.57,3.1,4,6.84,7.67,7.92,12.45.42,1.61-1.25,1-2,1.33-.77.88-2.19.85-2.79,2.48a78.81,78.81,0,0,0-8.47-12.7c-1.44.07-2.28,1.12-3.22,2,5,5.66,8.77,12.18,12.4,18.77.89-1.07.56-2.56,1-3.77-.67-1-1.52-2.38-.37-2.94C83.62,179,84.62,188.25,87.47,180.94Zm17.74-11.87,0,0a.68.68,0,0,0,0-.15S105.2,169,105.21,169.07Z" fill="#f3f6ec"/><path d="M70,261.27c-2.51.12-5.85-1.14-6.55,2.17a143.47,143.47,0,0,0-8.55,25.43c7.65-5.77,18.71-4,25.43,2.29,3.57-1.64,4.94-4.74,3.44-7.75,6.11-2.24.65-11.83,8.13-12C86.17,264.57,78.68,261.58,70,261.27Z" fill="#f3f6ec"/><path d="M153.93,293.17c.22-1.5.42-3,.64-4.49-6.71-8.17-18.76-11.45-28.46-7.28,1.33.74,1.72,2.3,2.83,3.24.6.51.23,1.09-.07,1.7-1.38,2.81-2.8,5.47-2.66,8.92-.1,1.94-2.15,5.38-.91,7.69a34,34,0,0,1,14.43,3.66c-1.41-6.65,7.05,1.63,8.51,3.11C151,304.53,152.49,298.83,153.93,293.17Z" fill="#f3f6ec"/><path d="M204.13,210.6a6.4,6.4,0,0,0-1.89-4.13c-4.32,1.41-8.84,2.29-12.61,5.06.18,1.24-.46,1.44-1.48,1.16-1.06.48-1.2,1.9-2.66,1.6-.16.06-.43.21-.46.16-.28-.32,0-.43.26-.55.53-.7,1.1-1.33,2.12-1a1.91,1.91,0,0,0,0-3.53,1.65,1.65,0,0,1-1.94-1.57c-.75-2.07.78-3.59,3.45-3.42.21-1,.47-2-.58-2.65-5.62-7-8.31-9.51,1.75-12.84,4.49-1-11.7-13.88-13.8-14.7C171,176.17,162.81,197,163.74,203c2.48-4.8,3.3-10.37,7.72-13.94-1.48,4.33-3.94,8.16-2.58,12.92a24.57,24.57,0,0,1,4.12-7.35l.63.33c-1.27,3.42-4.76,6.71-3.56,10.54,1.53-2.8,3.26-3.74,5.23-6.49-.05,3.13-2.71,5.19-1.38,7.87,1.11-.72,1.56-2.71,3.07-1.14.82.83,1.84-.27,2.67.33,6.21-3.75-.6,1.66-1.56,3.53,1,.5,1.7-.47,2.85-.38-.94,2.39-2.17,5,1.77,5.75.21-.13.44-.24.66-.36,2.14-.43.15,2.42.42,3.57C190.39,215.32,196.68,210.54,204.13,210.6ZM183,204.12l-.1-.13.16,0Z" fill="#f3f6ec"/><path d="M50.06,202.92v0h0Z" fill="#f3f6ec"/><path d="M59.38,177.37c-2.38-2.77-21.47,18.15-24,21.07-2.9,3.27-1.93,3.51.61,5.91,4.08.47,10.45,7.5,12.77,6-1-.2-1.29-.57-.65-1.42l-1.25-1.94c1.81.35,2.79,1.6,4.13,2.12l1.72-1.39c-.24-1-1.46-1.54-1.53-2.68-.63-.54-1.26-1.09-1.11-2.05-2-.57-3.06-2.5-4.2-4.38,4.87.26,5.29,5.69,11.47,5.32.76-2.11-1.89-3.09-1.62-5.22a10.88,10.88,0,0,1,2.94,2.28c.56.59.76,1.84,2,1.41a1.7,1.7,0,0,0,1.13-2.11c2.16-1.69,4.82-3.72,6.47-6.28C66.87,187.58,63.45,182.3,59.38,177.37Zm2.11,21.45-.1.2c-.2,0-.24-.05-.23-.24Z" fill="#f3f6ec"/><path d="M213.31,256.19c3.3-.29-5.24-38.3-8.81-35.75-5.47,1.93-10.74,4.23-15,8.3-1.07,2.48.56,4.72.67,7.11.29,2.37,2.48-.73,3.54.39-1,4.12-.87,4.23,3.4,4.41.29,1.92-2.52,1.63-2.16,3,.88,2.24,3.91,2.71,6.06,2.13,1-1.31,2.14-.94,3.43-.13a2.93,2.93,0,0,1-3.12,1.06c-2.27,1-4.87,1.61-7,2.37l-.05,0c-.08.37-.29.49-.64.35-2.93,3.37,1.53,2.09,3.66,2.92-.27.81-1,.23-1.33.68,1,2.81-1.44,1-2.2,1.71-.08.36-.15.72-.23,1.08C200,255,206.85,254.47,213.31,256.19Z" fill="#f3f6ec"/><path d="M126.45,116.51l-1.09.94c.94,1.45-1,2.42-.63,3.77,17-9.17,46.28-1.85,55.65,15.44.59-.74,1.36-.62,2.13-.45C179,110.78,146,99.54,126.45,116.51Z" fill="#f3f6ec"/><path d="M151.34,217.82c2.29-6.63,4.28-13.35,6.11-20.11,1.05-3.85.16-5.38-3.62-6.57-21.16-5.08-17.29-11.23-22.59,7.13l.22.06c-.19,3.34-6.71,14.84-1.92,15.47,6.22,1.74,12.39,3.66,18.54,5.59C149.8,219.93,150.72,219.63,151.34,217.82ZM134.87,190.3c1.62-1.89,14.92,4,18.37,4.43,4,1.37-1.55,14.9-2.69,18.08,4.89-18.79,3.34-14.67-13.35-19.89C136,192.55,134.11,191.87,134.87,190.3Zm10.3,22.17-5.76-1.72c-9.94-2.91-8.24-1.72-5.86-10.32,1.78-6.47.91-6.11,7.58-4.2,3,1.59,10.59,1,9.59,5.84C149.21,204.85,149.56,213.62,145.17,212.47Zm.91,3.5c.54-1.45,2-1.48,3.22-1.05,1.42.49,1,1.68.77,2.74-.29,1.41-1.18,1-2.22.64C147.09,217.77,145.48,217.56,146.08,216Z" fill="#f3f6ec"/><path d="M71.68,308.11c1.6.19,4.28.41,4.54-1.73s-14.65-4.75-17.31-6.06c.06-.22.12-.43.19-.65,3.29.33,17.23,6.91,18,3.45,2.61-7.78-12.85-10.72-17.91-8.89,3.1-4.66,14.67-.89,18.15,2.6,1.56,1.6,2.53,1.61,3.29-.56-6.07-11.64-28.2-12.35-27,4.76l0,.47c.66-.32,1,.08,1.26.58,1.62,3.34,4.77,4.9,7.71,6.7C65.49,307.22,68.58,307.68,71.68,308.11Z" fill="#f3f6ec"/><path d="M139.19,256.13c-.58.45-1,.32-1.26-.34l-.55.08c1.07,3.63,13.63,1.15,16.51,7.47a41.49,41.49,0,0,0-12.66-1.93c-1.23,0-3.15-1.14-2.7,1.64,0,.09-.24.34-.34.33-2.21-.33-4.1,1.47-6.33,1l-2.25,1.24c1.75,3.54,13.4-2.57,20.29,2.28-7.67-.72-15.22-.64-22.18,3-.67.31-1.68.54-1.2,1.72,10.36-1.84,20.47-1.66,29.27,5.57a94.72,94.72,0,0,0,.29-19.17C150.74,256.26,145.21,254.73,139.19,256.13Z" fill="#f3f6ec"/><path d="M80.92,240c4.94,0,9,2.85,12.42,6.44-1.27-6.52-7.85-9.66-13.82-10.34-4,5-7.17,10.57-10.48,16.56,9.95-1.47,18.47,4,25.59,10.14.19-.83,1.05-1.74.75-2.57-2.11-.88-2.19-3.4-3.81-4.72a30,30,0,0,0-12.23-8.1c4.54-1.49,7.25.17,18.55,11.28-2.49-7.54-9.14-15-17.13-16.94C79.2,241.67,79.38,239.9,80.92,240Z" fill="#f3f6ec"/><path d="M132,184.71l-14.14-4.24c-.24.21-.42.19-.52-.13-3.33-.28-4.54.44-5.55,3.72-.8,4.45-6.17,16.53-4.82,19.79.49,0,.61.33.6.75,1.44-.32,1.26-1.65,1.56-2.62,1.72-5.64,3.38-11.29,5.3-16.88-.21,2.92-6.3,20.38-2.24,20.28.29-9.56,3.42-8.11,11-6.23.12-.54.25-1.08.38-1.62-2.77-1.45-8.93-.84-8-5.29.76-5.4,1.62-6,6.84-4.5,11.85,2.24,4.52,6.07,3.5,13.77l1.92.56c1.84-5.52,3.57-11.08,4.93-16.74A.79.79,0,0,1,132,184.71Z" fill="#f3f6ec"/><path d="M141.19,310.83c-3.06-3.23-7.28-3.46-11.11-4.76-4.38,4.13,2,4.92,5.09,6.27-3-.12-5.64-2-8.73-1.55-.37,1.17-.73,2.35-1.09,3.53,3.35,2.31,7.5,2.44,11.09,4.2-4.22.29-7.93-2-12-2.62.05,4.54,6.47,3.46,9.22,5.63C139.05,321.59,147.58,316,141.19,310.83Zm-2.78,7.48a2.21,2.21,0,0,1-.34-.18l.36-.3C138.51,318,138.7,318.25,138.41,318.31Z" fill="#f3f6ec"/><path d="M96.51,152.2c1.64.36,1.18-5.09,3.14-5.88,2-5.34,2.57-11.84,5.39-16.6a1.4,1.4,0,0,1,.64-1.51c-.73-1.49.27-2.66.71-3.94,1.73-6.57,1.45-18.57,10.43-19,4.29-5,17.66,5.09,23.1,1C129.24,103,114.7,96.42,108.6,110c-2,4.24-2.07,9.16-4.31,13.24-2.94,9-4.76,18.17-8.13,26.93C96.08,150.87,95.45,152,96.51,152.2Z" fill="#f3f6ec"/><polygon points="23.14 237.75 23.14 237.74 23.14 237.74 23.14 237.75" fill="#f3f6ec"/><path d="M31.05,219.83c-.73,0-1.45,0-1.54-1-1.47-.82-2.65-2.41-4.54-2.32-2.74,5.14-5.39,10.57-4,16.58,2.26-.17-.26-2.18,3.54-6.35-.12,3.71-1.55,7.24-1.4,11,5.09-1.38,6.89-10.09,8.53-14.66C32,221.71,30.29,221.06,31.05,219.83Z" fill="#f3f6ec"/><path d="M212.59,258.8c-5.18-.54-10.27-1.05-15.19.46,1,2.11.59,4.34.59,6.53,6.52-2.34,19.18,4.75,18.14-3.35C216.08,260,214.3,259.49,212.59,258.8Z" fill="#f3f6ec"/><path d="M212.1,276.09c.15-1.39.29-2.79.43-4.18l-6.75.13c-5.1,3.7-4.64,11.1-4.91,16.76,1.39,6.21,4.92-5.21,6-6.81a8,8,0,0,0,2.78,2.15C210.63,281.58,211.26,278.74,212.1,276.09Z" fill="#f3f6ec"/><path d="M58,356.69l3.85.46c.38-1.86-.41-3.1-2.22-3.35-9.05-2.85-8.16-16.36-5.21-23.54-.48-1.28-1-2.56-1.67-4.49-4.31,12-6.35,35.44,11.34,33.63C62.51,357.63,59.8,358.56,58,356.69Zm-1.62-1c-.09-.08-.05-.31-.07-.47.45-.11.59,0,.54.46C56.69,355.71,56.47,355.79,56.38,355.71Z" fill="#f3f6ec"/><path d="M149.88,280.61c1.9,1.15,4.07,2,5.14,4.23,3.3-11.53-23.19-12.77-30.11-9.49.2,1.88-2.5,1.21-2.53,2.88C131.81,276,141.11,275.33,149.88,280.61Z" fill="#f3f6ec"/><path d="M71,254.54c-3.41,0-4.09.67-4.79,4.2,8.91-3.18,19.76,2.73,26.62,8.51l2.52-.5C88.81,259.78,80.92,254.54,71,254.54Z" fill="#f3f6ec"/><path d="M204,217.49c3.29-.73,2-3,.66-4.77-6.52,2-13.24,4.89-18.52,9,2.64.73,1.7,2.64,1.43,4.34C192.56,222.4,197.89,219.15,204,217.49Z" fill="#f3f6ec"/><path d="M63.38,171.82c-2.92.6-3.36,1.28-1.77,3.34a87,87,0,0,1,8.86,14.49c1.75-.11,2.73-1.31,3.65-2.6C71.32,181.43,68.64,175.72,63.38,171.82Z" fill="#f3f6ec"/><path d="M31.55,205.17c-2.67-1-4.17.2-4.94,2.71,4.55,1.59,8.89,3.56,12.33,7.06.86.9,1.8,1,2.59.12l-.14-.29.24,0a6.59,6.59,0,0,1,1.26-2.64C39.88,208.59,35.37,207.44,31.55,205.17Z" fill="#f3f6ec"/><path d="M172.29,230.24c-1.41-.28-1,1.2-1.3,1.89-2.84,8.16-4.45,16.72-8.28,25,7-3.9,7.13-17.33,10.36-24.5C173.38,231.64,173.62,230.51,172.29,230.24Z" fill="#f3f6ec"/><path d="M180.82,120.56c2.9,1.88,17.81,5.1,16.12,8.6.93.19,1.91.33,1.79,1.66l0,0a1.22,1.22,0,0,0,1.47-.78c-3.36-9.49-14.81-10-23.28-12.14l2.54,2.62A3.75,3.75,0,0,1,180.82,120.56Z" fill="#f3f6ec"/><polygon points="196.94 129.17 196.94 129.16 196.94 129.16 196.94 129.17" fill="#f3f6ec"/><path d="M125.76,171.09c-.89.65-1,.74.33,1.64,8.07,5.63,16.93,8.54,26.86,7.64.71-.55.29-.87-.25-1.16C143,179.07,134.12,175.86,125.76,171.09Z" fill="#f3f6ec"/><path d="M105.19,197.83c1.71-5.63,3.34-11.28,5-16.92-4.69,1.06-5.54,13.29-7.5,17.55-.28,1-.78,2.26,1.12,2.23A19.26,19.26,0,0,0,105.19,197.83Z" fill="#f3f6ec"/><path d="M91.32,208.33c-3.47-1.09-5.87-.31-7.55,2.32,5.84.72,11.69,1.5,17.52-.11l.39-.72-1.18-.55C97.29,210.38,94.33,209.27,91.32,208.33Z" fill="#f3f6ec"/><path d="M106.68,229.76c-3.05.16-9.15-5.61-8.78.43,3.62.44,6.81,2.4,10.38,3C109.28,231.35,109.32,230.14,106.68,229.76Z" fill="#f3f6ec"/><path d="M185.4,193.92c1.27,2.23,2,4.8,4,6.57,4.41-5-4.43-5.75.65-7.94.83-.25,2.27,0,1.57-1.71C190.33,191,184.83,192.29,185.4,193.92Z" fill="#f3f6ec"/><path d="M143.93,242.8c1.3-4-6.32-3-8.63-4.44-1.8-.55-2,.36-2,1.72C135.68,240.49,142.34,244.2,143.93,242.8Z" fill="#f3f6ec"/><path d="M192.14,203.05c2-.35,3.87-1.34,5.82-2s1.85-1.29.6-2.46C196.44,197.63,187.77,201,192.14,203.05Z" fill="#f3f6ec"/><path d="M166.44,235.15c.37-2.18-1.08-3.4-2.44-4.67-.82.57-1.07.22-1-.63l-1.5-.57c-.39,1.43-2.32-.06-2.68,1.41C161.32,232.23,163.19,234.86,166.44,235.15Z" fill="#f3f6ec"/><path d="M121,229.78l-1.86,7.89.72.13,1.08-3.19c-.35-2.37,1.66-1.49,2.74-2,.72,1-2.49,6.33-.61,6.05,1-2.45,1.27-5.15,1.94-7.72Z" fill="#f3f6ec"/><path d="M97.19,268.92l-1.87-2.16C95,268.3,95.4,269.21,97.19,268.92Z" fill="#f3f6ec"/><path d="M120.89,106.62l1,.63C121.91,106.5,121.71,106.05,120.89,106.62Z" fill="#f3f6ec"/><path d="M57.26,203.88c-.1.34-.2.67-.29,1l.4.38C57.79,204.77,58.26,204.27,57.26,203.88Z" fill="#f3f6ec"/><path d="M101.56,203.39l1,.4.51-.52C102.48,202.49,102,203,101.56,203.39Z" fill="#f3f6ec"/><path d="M204.73,336.39a.55.55,0,0,0,.18,0Z" fill="#f3f6ec"/><path d="M163.3,197.32a4.14,4.14,0,0,0-3.13,4.05c-.6,5.85-3.92,10.74-1.78,16.88C160.52,211,162.93,204.69,163.3,197.32Z" fill="#f3f6ec"/><path d="M125.19,314.43s.12-.06.16-.11h0Z" fill="#f3f6ec"/><path d="M169.61,144.58c.62,6.84,8.45.6,3.93-2.9-2.29-.72-1.47-2.16-.89-3.38,1.9-3.72-3.77-9-6.76-5.36-.25-3.27-2.1-5.7-5.4-5.4-4.59.58-3.23,8.59,1.52,7.92,4.9-.65,1.62,6.7,8.53,5.78A5.43,5.43,0,0,0,169.61,144.58Z" fill="#f3f6ec"/><path d="M73.57,338.87c.85,1.88,3.6-.56,5-.91-.47,2.57-2.75,3.23-7.74,2.38-7.41.81-12.54-4.48-16.4-10.08-3,7.16-3.84,20.7,5.21,23.54,1.81.25,2.6,1.49,2.22,3.35,3.6,1.21,8.08,1.25,10-2.78,5.31-3.15,8.55-14.28,9.47-20.51C79.17,336.37,76.35,337.59,73.57,338.87Zm-10.7,15.68c2.41-1.61,5.57.37,8.27-1.33,1.59-.76.38.76.65,1.13C68.9,355.81,66,355.52,62.87,354.55ZM66.6,349c2.85-.1,5.64.29,8.38-.68C73.91,350.78,68.85,351.18,66.6,349Zm1.59-4.52c3-.19,6-.25,8.88-1.53C76.66,346,73.4,346.56,68.19,344.48Z" fill="#bad7d8"/><path d="M170.88,173.3c-2.12,7.21-10.7,10.84-17.28,11.28-.08.95-1.26.56-1.63,1.41,3.09.83,9.71,4.41,8.23,8,1.18,8.53-11,24.13-2.63,30.25,1.4-7.33,4.16-14.13,6.17-21.29-.92-6,7.27-26.79,12.59-28.77C174.79,173.23,171.47,169.88,170.88,173.3Zm-9.44,34.35c-.59,3.47-1.93,6.82-3.05,10.6-2.14-6.14,1.18-11,1.78-16.88a4.14,4.14,0,0,1,3.13-4.05C163.57,200.93,162,204.21,161.44,207.65Z" fill="#bad7d8"/><path d="M117.92,134.37c-4.44,11.77-2.57,22.6,5.71,30.1,1.24-.65-.42-1.69.32-2.4-13.25-15.09-5.64-40,14.38-41.17,10.6-.7,20.43,2,29.58,7.27,17.23,10.48,11.49,38.81-7.17,43.74l-.54,2.27c18.65-3.82,27.2-32.56,11.66-44.51C157,117.68,126.13,112.14,117.92,134.37Z" fill="#bad7d8"/><path d="M107.87,317.6l0,0s0,0,0-.07Z" fill="#bad7d8"/><path d="M129.43,324c-5.54-.91-10.44-3.54-15.51-5.72l-.41.33c1.81,2.31,4.45,3.45,7.65,5.05-5.54-.85-9.76-2.7-13.27-6.06-.72,2.53,5.42,6.82,7.58,8-2.59.13-4.48-1.18-6.32-2.66-.64-.51-.89-1.7-2.1-1.34l.08-.09H107l0,.08h0l0-.08c.73,3.59,3.42,5.64,6.16,7.83a5,5,0,0,1-3.22-1.15v0l-.1.06h0c-1,1.06.2,1.56.67,2.1,2.68,3.05,6,4.32,10,3.29C123.17,334,133,325.12,129.43,324Z" fill="#bad7d8"/><path d="M203.53,289.11c-4.71,7.65-2.84-15.79,2.25-17.07-2.38-1.86-10.43.37-9.55-2.27-12.47-.2-14.3,10.57-8.44,8.11,2.64-.8,2.78-3.82,4.73-5.28,1.69-1.62,1.85-.14,2.08,1,.79,4.1.64,8.26.82,12.4,1.29,10.22,11.89,4.87,14.26-1.91A8,8,0,0,1,206.9,282C205.75,284.43,204.66,286.78,203.53,289.11Z" fill="#bad7d8"/><path d="M119.06,300.88c-1.08.84-2.59,1.68-1.64,3.12.38,1,1.1.24,1.55.06,2-.8,4.25-.58,6.33-1.11-1.24-2.31.81-5.74.91-7.69-.77-4,3.61-8.56,2.73-10.62-3.61-6.32-6.15-1.46-11.13-.59-2.83,4.16.7,8.8-2.09,12.64,2.31-.18,4.18-1.42,6.26-.33-1,.55-5.7,3-3.47,3.72C119.37,299.43,120.33,300.71,119.06,300.88Z" fill="#bad7d8"/><path d="M101.1,251.78s0,0,0,.06h0Z" fill="#bad7d8"/><path d="M100,251c-4.23-2.31-3.07-8.18-9.44-9.69.85,1.63,2.89,2.62,2.76,5.16-2.66-3-10.23-8.62-13.68-5.64-.09.71.59.86,1.1.95,8,2,14.63,9.4,17.13,16.94-11.3-11.11-14-12.77-18.55-11.28a30,30,0,0,1,12.23,8.1c1.62,1.32,1.7,3.84,3.81,4.72,1.65-3.8,3.55,5.83,6.75,3.77-.43-1.19-2.6-2.68-1.55-3.87.6-.39,1,.16,1.41.44.66,0,.75,1,1.25,1.34a4.43,4.43,0,0,1,1.51-2.84c-.73-2.74-3.5-4.29-3.64-7.21C100.3,252.11,100.33,251.32,100,251Z" fill="#bad7d8"/><path d="M113.45,157.43c.34-3.24-.81-3.52-3.24-3.26-.77,8.53,0,17.27-3,25.56-.84,2.57-1.88,5.1-2.1,7.84l.69.14c1.2-2.39,1.09-6.41,4.38-6.8,3.61-6.29,10.7-4,16.19-1.94,1.46.48,1-.24.64-.94C117.59,174,112.61,165.32,113.45,157.43Z" fill="#bad7d8"/><path d="M88.69,289.2l-.06.24.2-.15Z" fill="#bad7d8"/><path d="M94.71,275c-.85-1.26-1.89-2.39-2.85-3.58-7.49.17-2,9.75-8.13,12,1.5,3,.13,6.11-3.44,7.75,2.52,1.66,3.42,5.38,6.75,5.5-.55-1.71-2-3.12-1.88-5.23,2.27.33,2.43,2.73,3.93,3.77.64-2.11-.92-3.86-.46-5.76-.71.42-1-.63-1-.69.37-1,.91,0,1.39-.07,2.15-.68.05-6.7,2.84-4.18,1.19,1.68,3.29.05,2.4-1.61a2.88,2.88,0,0,1,.55-3.28C96.9,277.89,95.68,276.45,94.71,275Z" fill="#bad7d8"/><path d="M199.67,137.1c-.89,4.2-3.14,7.93-4.31,12-.2.73-.64,1.65-1.77.94a8,8,0,0,1-4.22-1.09c-3.07-.75-1.57,2.18-2.52,3.13,1.28.84,6.7,1.31,6.12,3-2,7.6-4.49,15-6.14,22.6-.7,2.15,2.27,2.93,2.18.55,2.25-11.89,14.9-38.41,11.21-48.26a1.22,1.22,0,0,1-1.47.78C199.57,132.89,200.43,134.93,199.67,137.1Z" fill="#bad7d8"/><path d="M74.28,304.92c.79.24,2,.15,1.94,1.46-1.5,4.35-9.93-.67-13.69,2.4,4.63,3.84,14.84,4.92,18.15-1.33,2-3.74,2.67-7.47-.05-11.18-.76,2.17-1.73,2.16-3.29.56-4.24-3.69-12.72-6.57-17.78-3.29h0c-.16.23-.66.4-.37.69l.52-.46-.1-.15.1.15c5.76-.33,19.58,1.06,17.39,9.34-.78,3.47-14.72-3.12-18-3.44-.07.22-.13.43-.19.65C64,301.85,69.16,303.36,74.28,304.92Z" fill="#bad7d8"/><path d="M122.13,267.5c1.26-1.87,2.71-3.19,5.07-1.71-.08-1.3.53-1.56,1.77-1.4.93.13,1.91-.42,2.89-.05,2.23.51,4.12-1.29,6.33-1,.1,0,.35-.24.34-.33-.45-2.78,1.47-1.62,2.7-1.64a41.49,41.49,0,0,1,12.66,1.93c-2.94-6.35-15.38-3.81-16.51-7.47a18.57,18.57,0,0,0-6.92,1.89c-1.75.89-4,.92-5.17,2.88l-.59-.23.45.79c.23-.09.2-.26.17-.46.56.42,1.65-.26,1.76.54s-.64,1.37-1.53,1.56c-2,.54-3.57,2.06-5.33,3.12A1.53,1.53,0,0,0,122.13,267.5Zm5.7-6.53.13.22c-.22,0-.41.16-.48-.14Z" fill="#bad7d8"/><path d="M38.19,223.68a20.06,20.06,0,0,0-7.14-3.85c-.76,1.23,1,1.88.62,3.25-1.64,4.57-3.43,13.28-8.53,14.66-.15-3.72,1.28-7.25,1.4-11C20.73,231,23.27,233,21,233.13a8.22,8.22,0,0,0,2.14,4.62h0c6,10,10.91-6.65,15.5-10.08C40.14,226,39.77,224.94,38.19,223.68Z" fill="#bad7d8"/><path d="M198.3,246.15c-7.21-3.32-.87-3.06-1.21-5.5-4.27-.18-4.36-.28-3.4-4.41-1.05-1.13-3.25,2-3.54-.39-.11-2.39-1.74-4.63-.67-7.11-4.2,2.55-7.06,7-6.23,10a9.49,9.49,0,0,1,3.91-2.5c-.07,1.59-1.34,2.32-2,3.42l.89.84c1.14-.53,1.53-2.21,3.22-1.72-.3,1-.71,1.95-1.07,2.92,2.37.39,1.5,1.9,1.14,3.23-1.17-.24-2.14-.06-2.65,1.19l2.64-1.16v0c.64-.12,1.32-.71,1.78.35.57,1.61-3.76,1.94-3.61,4.25C191,247.91,194.89,247.89,198.3,246.15Z" fill="#bad7d8"/><path d="M136.44,318.52c-3.59-1.76-7.74-1.89-11.09-4.2.36-1.18.72-2.36,1.09-3.53-1-.24-2.16.22-3.14-.84,2-1,3.88,0,5.72-.18-1.47-1.76.55-2.51,1.06-3.7-18.21-4-10.62,18.46,3.6,15.46-2.74-2.17-9.17-1.09-9.22-5.63C128.51,316.54,132.22,318.81,136.44,318.52Z" fill="#bad7d8"/><path d="M117.68,209.82c9.67,3.75,7.47-.38,10.09-7.75l-1.92-.56c-1.09,10.07-6.68,5.53-13.7,3.87-4.05.09,2-17.31,2.24-20.28-1.92,5.59-3.58,11.24-5.3,16.88-.07,1.51-1.14,3.36-3,2.79-.08.32-.15.64-.23.95,1.8-.79,2.75.91,4.12,1.39l7.1,2.51C117.38,209.34,117.58,209.42,117.68,209.82Z" fill="#bad7d8"/><path d="M193.71,145.43c2.78-1.58,5.3-9.33,3.91-12.71-3.4-3.66-9.77-4.32-10.8,1.71C184.44,139.42,187.64,146.54,193.71,145.43Zm.15-13c5.64,1.53,2.3,10.42-2.75,8.72C185.18,139.26,187.76,130.22,193.86,132.41Z" fill="#bad7d8"/><path d="M184.78,132.84c3.1-5.18,4.54-5.81,9.56-4.37a6.88,6.88,0,0,1,4.39,2.35c.12-1.33-.86-1.47-1.79-1.66.16-1.14.1-2.14-1.23-2.67-5.44-1.75-10.65-5.09-16.23-5.95C181.68,124.38,184.11,128.11,184.78,132.84Z" fill="#bad7d8"/><path d="M122,268.88l-.63.32c.78,1.76.09,3.26-.8,4.73a28.55,28.55,0,0,0,5.92-1.35c-.48-1.18.53-1.41,1.2-1.72,7-3.64,14.51-3.72,22.18-3-7-4.88-18.47,1.28-20.29-2.28-.81-.05-1.55.59-2.39.25A7.75,7.75,0,0,1,122,268.88Z" fill="#bad7d8"/><path d="M127.22,265.83l0,0,0,0v0Z" fill="#bad7d8"/><path d="M136.16,233.79c1.26-1.29,2.13,1.22,3.35.33a5.19,5.19,0,0,0-4-4.78c-7.93-2.36-15.84-4.77-23.76-7.16a.41.41,0,0,1-.65-.19l-1,0c0,2.34,4-.08,3,3.48l.89.24c1.3-2.6,2.72.25,4.16,0,1-.19.19.88.17,1.39l3,.74c.35-.31.59-.23.71.22,2.69,1.73,6.14-.74,7.81,2.45C132.06,231.36,134.72,231.41,136.16,233.79Z" fill="#bad7d8"/><path d="M112.17,121.57c7.61,4.3,14.75-11.34,6.07-13.72C111.3,104,106.69,119.46,112.17,121.57Zm5.45-12c6.3,1.58,2.59,10.84-3.45,8.46C108.38,115.35,111.69,108.52,117.62,109.61Z" fill="#bad7d8"/><path d="M121.92,107.25c1.94,1.76,2.84,4,2.83,7.2,3.38-3.52,7.16-5.21,11-6.87-4.67-2-9.79-2.24-14.6-3.78a4.13,4.13,0,0,0-4.29,1.45l4.07,1.37C121.71,106.05,121.91,106.5,121.92,107.25Z" fill="#bad7d8"/><path d="M87.41,177.9l.23-.69c1.62,3.95.84,9.12,3.47,13.1h0c0,.32,0,.65,0,1l1,.21c.08-.54.19-1.08-.33-1.49.44-1.49-.37-2.9-.29-4.36-2-2,.78-7.66,1.35-2l.07.24c.27.1.42.24.16.5a.19.19,0,0,1,.13.23c.84.62.68,2.21,1.32,3.19l.86.11c-.61-2.45,1.06-4.86.15-7.33-2.69,2.3-1.47-2.78-4.42-3.32-1.61-.18-2.3-3.67-3.87-2.45C86.64,175.5,85.65,176.94,87.41,177.9Z" fill="#bad7d8"/><path d="M87.69,178.21a.08.08,0,0,0,0-.05Z" fill="#bad7d8"/><path d="M149.55,225.32c.67-5-6.79-1.34-9.56-3.8-3-.82-2.47,5,.32,5.37C143.3,227,148.91,230,149.55,225.32Z" fill="#bad7d8"/><path d="M189.23,195.24c3.06,2.24.69,4.55-.85,6.53,1,.69.79,1.67.59,2.64a7.92,7.92,0,0,0,3.17-1.36c-4.37-2.07,4.3-5.42,6.42-4.42-1.57-1.47-4.59-10.11-6.91-7.79.7,1.69-.74,1.46-1.57,1.71C188.43,193.05,187.81,194.19,189.23,195.24Z" fill="#bad7d8"/><path d="M82.13,202.62c-3.51,2-9.2,23.35-7.56,27.63C76.89,220.9,80.18,212.17,82.13,202.62Z" fill="#bad7d8"/><path d="M114.85,227.89c-4.29-2-3.48,1.26-4.52,4.55-.25,1.95-2.75,5.13.92,5.52,1.24.37,2.4.89,2.88-1.08C114,234.23,118.54,229,114.85,227.89Z" fill="#bad7d8"/><path d="M41.5,215.15a1.64,1.64,0,0,1-2.56-.21c-3.44-3.5-7.78-5.47-12.33-7.06-.79,1.16-.92,2.23.57,2.9a102.43,102.43,0,0,1,13.61,8A5.43,5.43,0,0,0,41.5,215.15Z" fill="#bad7d8"/><path d="M186.09,221.75c-3,1.71-5,4.47-7.33,7,1.09,1.61,3.58-.59,4.1,1.76C185,228.39,191.13,224.11,186.09,221.75Z" fill="#bad7d8"/><path d="M180.62,154.84c.07,1.2-2.51,7.56-1,8,1.15.38,1.5-.82,1.79-1.62,1.17-3.85,3.25-7.63,3.3-11.71C182.9,144.21,181.3,152.87,180.62,154.84Z" fill="#bad7d8"/><path d="M87.51,181.39c-2.19,3.18-2.26,3.2-4.41.71-2.2-2.29-6.29-.79-3.57,2.2,1.45-.83,1.41.71,1.73,1.25a45.61,45.61,0,0,1,2,4.44c.74-1.43.29-2.65.13-4-.16-.28,0-.49.25-.5.57,0,.69.69.66,1.14a.24.24,0,0,1,.26.15c.76.07,2.19-1.72,2.06.81,0,.56.68.28,1.08.24C87.65,185.7,88.17,183.48,87.51,181.39Z" fill="#bad7d8"/><path d="M113.61,215.07c-.64-.36-1.49-.44-1.76-1.3-3,.45-5.24-5.25-7.85-4.06a2.67,2.67,0,0,0-1.06,3.32c2.17-1.65,2.92,1,4.5,1.45-1.58.37-2.92-1.28-4.44-.29l0,.12L113,217Z" fill="#bad7d8"/><path d="M46.32,230.91l-.2-.77a.46.46,0,0,1-.24-.73l-1.65-2.3c-1,.07-2.13,0-3,.77.86,2.44.34,8.4,3.93,8C47.39,234.85,45.76,232.54,46.32,230.91Z" fill="#bad7d8"/><path d="M140,304.15c-.9.52-.44,1.59-.29,2.46,2.45,1.82,4.83,3.7,6.33,6.74a12.34,12.34,0,0,0,2.18-3.63C145.84,307.77,143.38,304.11,140,304.15Z" fill="#bad7d8"/><path d="M173.63,195l-.63-.33a24.57,24.57,0,0,0-4.12,7.35c-.21-1.34-.35-2.28-.5-3.23-.91,2.63-2,5.26-1.72,8.23,1,.38.79-1.09,1.72-1l-.5,2.84.43.17,1.76-3.48C168.87,201.67,172.36,198.38,173.63,195Z" fill="#bad7d8"/><path d="M69.54,199.59c-.64-1.83,0-4-1.33-5.63a23.86,23.86,0,0,1-5.72,5.71c.94,1.27,1.11,3.42,3.08,3.3.25-.78-.85-2,.45-2.34s.89,1.49,1.73,2C69.11,202,67.66,199.82,69.54,199.59Z" fill="#bad7d8"/><path d="M90.75,220.89a11.75,11.75,0,0,1,.23,1.32c2.25-3.74,7.89.34,9.56-4.38.22-1.68-.06-2.49-1.93-1.36C96.07,218.88,89.17,215.44,90.75,220.89Z" fill="#bad7d8"/><path d="M57,204.89c.14-.3.12-.83.36-1-6.21.36-6.57-5-11.47-5.32a11.27,11.27,0,0,0,3.52,4.2c.27-.09.57-.26.71.17.88.22,1.65.58,1.87,1.58,2.64.86,2.6,5.54,5.42,4.73C57.47,208,54.44,204.25,57,204.89Z" fill="#bad7d8"/><path d="M50.1,203v0h0Z" fill="#bad7d8"/><path d="M97.22,186.7c0,.41,0,.81-.08,1.22l.56.47a.26.26,0,0,1,.25-.29c.11-.71.37-1.26,1.24-1.1,1.89-2.22,2.27-5.22,3.34-7.86-1-.24-1,1.45-2.16,1.35.29-2.25,1-4.35.07-6.51-.23,2.91,0,5.91-3,7.68C97.36,183.34,97.88,185,97.22,186.7Z" fill="#bad7d8"/><path d="M75.32,188.79a.17.17,0,0,0,0,.07l.08,0Z" fill="#bad7d8"/><path d="M74.68,188.49c-.21-.44.16-.5.44-.6l-1-.84c-.92,1.29-1.9,2.49-3.65,2.6q1,3.21,2,6.42c2.19.11,1.7-2.85,3.56-3.12,0-1.41-1.26-2.59-.77-4.09C75,189,74.81,188.76,74.68,188.49Z" fill="#bad7d8"/><path d="M149.06,234.79c1.09,1.63.39,3.54,1.42,5,1.3-.65,1.93-2.2,3.46-2.56,1.28-2.09-2.93-1.57-4-6.86-1.17.84-2.77.82-2.79,2.55A4,4,0,0,1,149.06,234.79Z" fill="#bad7d8"/><path d="M116.4,128.07c-3.21-.29-3.94,8.47-4.83,11,1.94-.08,1.07-3.49,3.61-2.81C115.3,134.49,118.71,128.48,116.4,128.07Z" fill="#bad7d8"/><path d="M131.68,239.18c.34-1,.47-2.07.79-3s1.33-1.86.43-2.54c-3.81-3.18-4.81,1.18-5.39,4.36C128.9,238.37,130.44,238.24,131.68,239.18Z" fill="#bad7d8"/><path d="M82.57,196.34c-.21-4-1.93-7.72-3-11.54-.72,1,0,2.38-1,3.27l-.09.69c1.79,3.07,1.22,6.78,2.54,9.84C82.48,198.53,82.66,197.5,82.57,196.34Z" fill="#bad7d8"/><path d="M79.16,172.36c-1.64-1.15-5.56-10.17-7.48-6.39l8.94,11.48C81.13,175.46,79.5,174.1,79.16,172.36Z" fill="#bad7d8"/><path d="M177.81,220.51l.08,0h-.08Z" fill="#bad7d8"/><path d="M184.14,215.77c-1.84,1.5-3.67,3-5.59,4.37v-.08c0,.47-.27.59-.66.47,0,2.45-4.84,3.88-2.64,6.33C177.71,222.79,183.61,220.56,184.14,215.77Z" fill="#bad7d8"/><path d="M189.16,206.89c-.88.45-1.81,1-1.61,2.24,4.42-2,8.81-4.12,13.72-4.7C201.59,199.59,191.36,206.13,189.16,206.89Z" fill="#bad7d8"/><path d="M178.1,209.6a7.28,7.28,0,0,0-2.46,2.73c1,1,2.08.57,3.63,0-1.22,1.72.6,3.34-.94,4.56,1.87.31,3.12-.82,4.39-1.91-3.94-.77-2.71-3.36-1.77-5.75C179.8,209.13,179.06,210.1,178.1,209.6Z" fill="#bad7d8"/><path d="M97.19,268.92c-4.1.35.51-3.23-4.38-1.67,2.4,2.72,4.14,6.1,7.65,7.71C100.35,272.42,98.35,270.89,97.19,268.92Z" fill="#bad7d8"/><path d="M124.91,275.35c-1.92-.13-9.34,3.19-7.85,5.59l5.32-2.71C122.41,276.56,125.11,277.23,124.91,275.35Z" fill="#bad7d8"/><path d="M153.89,227.43a17.86,17.86,0,0,0,4.92,3.26c.36-1.47,2.29,0,2.68-1.41-2.37-1.86-5.83-1.65-7.84-4.17C152.16,226,153.24,226.91,153.89,227.43Z" fill="#bad7d8"/><path d="M175.86,209.54c.87-1.65,2.95-1.86,3.8-3.47-.83-.6-1.85.5-2.67-.33-1.1-1.13-1.8-.43-2.39.59,1.56,1-1.62,3.25-2.07,4.47l.54.75.67-.25C173.86,210,175.13,210.1,175.86,209.54Z" fill="#bad7d8"/><path d="M51.22,212.85c-1.24-.45-1.25-2.08-2.47-2.55a2.51,2.51,0,0,1-2,.29c1.31,1.92,3.59,3.09,4.27,5.5.7.72.1,2.68,2.08,2.17,0-.89-.11-1.78-.17-2.67A7.63,7.63,0,0,1,51.22,212.85Z" fill="#bad7d8"/><path d="M89.54,217.45c-3.55-1.63-3.42,4-1,5,.46.25,1.12.13,1-.38C89,220.51,90.78,218.74,89.54,217.45Z" fill="#bad7d8"/><path d="M153.79,241.83c1.13-.49,3.82-2.69,2.89-4a1.49,1.49,0,0,0-2.28-.4c-.64,1.47-2.6,2-2.77,3.8Z" fill="#bad7d8"/><path d="M53.91,209c-.41-.43-.81-.86-1.21-1.3L51,209.06c.43,1.46,2.14,1.83,2.5,3.38a2.33,2.33,0,0,0,1.84,1.75C56,212.13,54.76,210.61,53.91,209Z" fill="#bad7d8"/><path d="M100.77,200.84c-.8-.19-1.28.49-1.93.69L97.49,206c1.82.2,3.35-1.54,5-2.19l-1-.4C97.68,203.66,101.33,201.6,100.77,200.84Z" fill="#bad7d8"/><path d="M156.87,242.92c5.28-2.29,1.85-6.33.38-3.4C156.88,240.67,154.94,242.22,156.87,242.92Z" fill="#bad7d8"/><path d="M121.41,123.51l3.32-2.29c-.34-1.35,1.57-2.32.63-3.77C123.61,118.94,121.8,120.39,121.41,123.51Z" fill="#bad7d8"/><path d="M159.68,178.39l-.67.12c-.32.52-.66.24-1,0-1.77.25-3.59.06-5.32.68.54.29,1,.61.25,1.16,2.24.82,4.61-.53,6.84-1C161.51,178.85,159.55,178.73,159.68,178.39Z" fill="#bad7d8"/><path d="M180.38,136.66c.61,1.61,1.21,3.22,2,5.29a7.54,7.54,0,0,0,.14-5.74C181.74,136,181,135.92,180.38,136.66Z" fill="#bad7d8"/><path d="M193.48,255.87c.08-.36.15-.72.23-1.08-1.77-.32-7.28,1.91-4.89,4.21C189.27,256.32,191.72,256.62,193.48,255.87Z" fill="#bad7d8"/><path d="M94.63,262.78c.7.76,1.15,1.79,2.28,2.08,1-1.91-.11-3.11-1.4-4.25Z" fill="#bad7d8"/><path d="M212.1,276.09q-1.11,3.82-2.24,7.65A13.5,13.5,0,0,0,212.1,276.09Z" fill="#bad7d8"/><path d="M98,144.16a19.31,19.31,0,0,0-1.57,5.24A8.52,8.52,0,0,0,98,144.16Z" fill="#bad7d8"/><path d="M106.08,117.73a15.84,15.84,0,0,0-1.79,5.48A11.89,11.89,0,0,0,106.08,117.73Z" fill="#bad7d8"/><path d="M112.24,316.53l-.71.41a4.92,4.92,0,0,0,2,1.69l.41-.33C114,317.1,112.92,317,112.24,316.53Z" fill="#bad7d8"/><path d="M42.89,212.18c-.35.76-1.21,1.28-1,2.27l2.33-.78c-.15-.41-.29-.81-.44-1.21Z" fill="#bad7d8"/><path d="M119.09,237.67c-.16.17-.33.33-.49.49,0,.62-.77,1.41.36,1.81.38-.69,1.11-1.24.85-2.17Z" fill="#bad7d8"/><path d="M100.87,134.74a1.75,1.75,0,0,0,.63-2.09A3.7,3.7,0,0,0,100.87,134.74Z" fill="#bad7d8"/><path d="M164,230.48c-.14-.53-.55-.62-1-.63C162.93,230.7,163.18,231.05,164,230.48Z" fill="#bad7d8"/><path d="M132.7,185.33c.07-.59-.29-.65-.74-.62A.79.79,0,0,0,132.7,185.33Z" fill="#bad7d8"/><path d="M137.93,255.79c.27.66.68.79,1.26.34a4.71,4.71,0,0,0-1.2-.48Z" fill="#bad7d8"/><path d="M107.54,317.54h.27l-.22-.22Z" fill="#bad7d8"/><path d="M107.87,317.61l.06-.06h-.12Z" fill="#bad7d8"/><path d="M109.43,328.54l.44-.3-.54.07Z" fill="#bad7d8"/><path d="M187.51,249.61h0l-.12,0,.06.08.07,0Z" fill="#bad7d8"/><path d="M117.82,180.47l-.52-.13C117.4,180.66,117.58,180.68,117.82,180.47Z" fill="#bad7d8"/><path d="M117,283.46c0,.16-.12.41.23.29C117.05,283.74,117,283.65,117,283.46Z" fill="#bad7d8"/><path d="M87.47,180.94a2.05,2.05,0,0,0,0-1.68C86.4,179.84,86.58,180.39,87.47,180.94Z" fill="#bad7d8"/><path d="M104.56,172.29a.72.72,0,0,0,.12-1.06A.82.82,0,0,0,104.56,172.29Z" fill="#bad7d8"/><path d="M103.67,175.1a3.54,3.54,0,0,0,.08.45l.14-.54C103.81,175,103.66,175.07,103.67,175.1Z" fill="#bad7d8"/><path d="M185.51,207.84c.26-2,2.61-2,3.45-3.42C186.29,204.25,184.76,205.77,185.51,207.84Z" fill="#bad7d8"/><path d="M189.63,211.53l-.9-.2-.64,1.25h0l-.68.36c-1-.37-1.59.26-2.12,1h0c-.58.17-.43.81.2.39,0-.07-.07-.13-.1-.19s.07.12.1.19a1.74,1.74,0,0,0,2-1.23h0l.68-.37C189.17,213,189.81,212.77,189.63,211.53Z" fill="#bad7d8"/><path d="M48.66,210.25a1.53,1.53,0,0,0-.56-1.37C47.54,209.64,47.65,210.12,48.66,210.25Z" fill="#bad7d8"/><path d="M61.2,199s.12,0,.19,0l.1-.2-.33,0C61.17,198.86,61.16,199,61.2,199Z" fill="#bad7d8"/><path d="M204.42,245.67c-1.29-.81-2.4-1.18-3.43.13.1.31.21.62.31.93A2.93,2.93,0,0,0,204.42,245.67Z" fill="#bad7d8"/><path d="M193.82,254.73c.73-.5,3.11,1.08,2.09-1.65A1.82,1.82,0,0,0,193.82,254.73Z" fill="#bad7d8"/><path d="M134.87,190.3c-.76,1.57,1.17,2.25,2.33,2.62,16.72,5.22,18.22,1.13,13.35,19.89,1.13-3.13,6.72-16.74,2.69-18.08C149.77,194.31,136.52,188.41,134.87,190.3Z" fill="#bad7d8"/><path d="M126.71,198.09l-3.16-.56c-.13.54-.26,1.08-.38,1.62.86.7,2.11.82,2.69,1.91C126.15,200.07,126.43,199.08,126.71,198.09Z" fill="#bad7d8"/><path d="M138.07,318.13c.35.31.66.11.36-.3Z" fill="#bad7d8"/><path d="M29.51,218.87c.09.86.68,1,1.38.93A1.73,1.73,0,0,0,29.51,218.87Z" fill="#bad7d8"/><path d="M56.79,355.23c-.1-.07-.32,0-.48,0,0,.47.09.58.54.46C56.84,355.54,56.88,355.31,56.79,355.23Z" fill="#bad7d8"/><path d="M150.56,185.42a1.2,1.2,0,0,0-1.33,0C149.7,185.89,150.76,186.19,150.56,185.42Z" fill="#bad7d8"/><path d="M41.63,214.82l-.24,0a2.59,2.59,0,0,0,.14.29A.2.2,0,0,0,41.63,214.82Z" fill="#bad7d8"/><path d="M120.89,234.61c.57.87,1.43.48,2.2.49.36-.78.93-1.51.54-2.47C122.55,233.12,120.54,232.24,120.89,234.61Z" fill="#bad7d8"/><path d="M120.18,203.68c2.17,3.29,6.62-2.37-.32-2.57a.19.19,0,0,1-.16.25A14.92,14.92,0,0,0,120.18,203.68Z" fill="#bad7d8"/><path d="M124,190.23c-3.16-.83-7.47-2.8-6.44,2.7,2-1.13,5.51-2.87,6.59.7.73.23,1.63.31,1.35,1.48C127.36,192.27,127,191.14,124,190.23Z" fill="#bad7d8"/><path d="M170.82,155.18a1.1,1.1,0,1,0,.72-2.07C170.17,152.4,169.18,155,170.82,155.18Z" fill="#bad7d8"/><path d="M191.05,138.71a3,3,0,0,0,3.71-1.41C192.34,131.78,187.84,137.3,191.05,138.71Z" fill="#bad7d8"/><path d="M115.51,115.67c1,.12,2.55.52,3-1.07C118.12,109.22,109.82,114.23,115.51,115.67Z" fill="#bad7d8"/></g></svg>